<?xml version="1.0"?>
<svg xmlns="http://www.w3.org/2000/svg" xmlns:xlink="http://www.w3.org/1999/xlink" version="1.1" width="320px" height="320px" viewBox="0 0 320 320"><rect x="0" y="0" width="320" height="320" fill="#ffffff" fill-opacity="1"/><path fill="#000000" fill-opacity="1" d="M10,10L94,10L94,22L10,22ZM130,10L142,10L142,22L130,22ZM178,10L190,10L190,22L178,22ZM226,10L310,10L310,22L226,22ZM10,22L22,22L22,34L10,34ZM82,22L94,22L94,34L82,34ZM118,22L130,22L130,34L118,34ZM142,22L154,22L154,34L142,34ZM226,22L238,22L238,34L226,34ZM298,22L310,22L310,34L298,34ZM10,34L22,34L22,46L10,46ZM34,34L70,34L70,46L34,46ZM82,34L94,34L94,46L82,46ZM106,34L118,34L118,46L106,46ZM130,34L154,34L154,46L130,46ZM178,34L214,34L214,46L178,46ZM226,34L238,34L238,46L226,46ZM250,34L286,34L286,46L250,46ZM298,34L310,34L310,46L298,46ZM10,46L22,46L22,58L10,58ZM34,46L70,46L70,58L34,58ZM82,46L94,46L94,58L82,58ZM118,46L130,46L130,58L118,58ZM142,46L178,46L178,58L142,58ZM190,46L202,46L202,58L190,58ZM226,46L238,46L238,58L226,58ZM250,46L286,46L286,58L250,58ZM298,46L310,46L310,58L298,58ZM10,58L22,58L22,70L10,70ZM34,58L70,58L70,70L34,70ZM82,58L94,58L94,70L82,70ZM118,58L142,58L142,70L118,70ZM154,58L166,58L166,70L154,70ZM178,58L190,58L190,70L178,70ZM202,58L214,58L214,70L202,70ZM226,58L238,58L238,70L226,70ZM250,58L286,58L286,70L250,70ZM298,58L310,58L310,70L298,70ZM10,70L22,70L22,82L10,82ZM82,70L94,70L94,82L82,82ZM130,70L154,70L154,82L130,82ZM166,70L214,70L214,82L166,82ZM226,70L238,70L238,82L226,82ZM298,70L310,70L310,82L298,82ZM10,82L94,82L94,94L10,94ZM106,82L118,82L118,94L106,94ZM130,82L142,82L142,94L130,94ZM154,82L166,82L166,94L154,94ZM178,82L190,82L190,94L178,94ZM202,82L214,82L214,94L202,94ZM226,82L310,82L310,94L226,94ZM106,94L118,94L118,106L106,106ZM154,94L190,94L190,106L154,106ZM10,106L46,106L46,118L10,118ZM58,106L118,106L118,118L58,118ZM154,106L166,106L166,118L154,118ZM178,106L190,106L190,118L178,118ZM214,106L238,106L238,118L214,118ZM274,106L286,106L286,118L274,118ZM22,118L34,118L34,130L22,130ZM46,118L58,118L58,130L46,130ZM70,118L82,118L82,130L70,130ZM94,118L130,118L130,130L94,130ZM142,118L178,118L178,130L142,130ZM190,118L202,118L202,130L190,130ZM226,118L238,118L238,130L226,130ZM250,118L262,118L262,130L250,130ZM286,118L310,118L310,130L286,130ZM10,130L34,130L34,142L10,142ZM46,130L58,130L58,142L46,142ZM70,130L106,130L106,142L70,142ZM130,130L142,130L142,142L130,142ZM154,130L178,130L178,142L154,142ZM226,130L238,130L238,142L226,142ZM286,130L310,130L310,142L286,142ZM10,142L34,142L34,154L10,154ZM46,142L58,142L58,154L46,154ZM106,142L142,142L142,154L106,154ZM154,142L166,142L166,154L154,154ZM214,142L238,142L238,154L214,154ZM58,154L70,154L70,166L58,166ZM82,154L94,154L94,166L82,166ZM130,154L142,154L142,166L130,166ZM202,154L214,154L214,166L202,166ZM226,154L238,154L238,166L226,166ZM250,154L310,154L310,166L250,166ZM22,166L34,166L34,178L22,178ZM106,166L118,166L118,178L106,178ZM130,166L142,166L142,178L130,178ZM166,166L178,166L178,178L166,178ZM190,166L202,166L202,178L190,178ZM214,166L226,166L226,178L214,178ZM250,166L262,166L262,178L250,178ZM286,166L298,166L298,178L286,178ZM10,178L22,178L22,190L10,190ZM46,178L58,178L58,190L46,190ZM82,178L94,178L94,190L82,190ZM118,178L142,178L142,190L118,190ZM166,178L178,178L178,190L166,190ZM202,178L238,178L238,190L202,190ZM286,178L298,178L298,190L286,190ZM22,190L46,190L46,202L22,202ZM106,190L130,190L130,202L106,202ZM154,190L178,190L178,202L154,202ZM214,190L226,190L226,202L214,202ZM262,190L286,190L286,202L262,202ZM10,202L22,202L22,214L10,214ZM34,202L94,202L94,214L34,214ZM106,202L118,202L118,214L106,214ZM130,202L142,202L142,214L130,214ZM154,202L166,202L166,214L154,214ZM178,202L190,202L190,214L178,214ZM202,202L262,202L262,214L202,214ZM274,202L286,202L286,214L274,214ZM298,202L310,202L310,214L298,214ZM106,214L130,214L130,226L106,226ZM142,214L154,214L154,226L142,226ZM166,214L214,214L214,226L166,226ZM250,214L262,214L262,226L250,226ZM286,214L298,214L298,226L286,226ZM10,226L94,226L94,238L10,238ZM106,226L142,226L142,238L106,238ZM154,226L178,226L178,238L154,238ZM190,226L214,226L214,238L190,238ZM226,226L238,226L238,238L226,238ZM250,226L262,226L262,238L250,238ZM286,226L310,226L310,238L286,238ZM10,238L22,238L22,250L10,250ZM82,238L94,238L94,250L82,250ZM106,238L130,238L130,250L106,250ZM166,238L178,238L178,250L166,250ZM190,238L214,238L214,250L190,250ZM250,238L310,238L310,250L250,250ZM10,250L22,250L22,262L10,262ZM34,250L70,250L70,262L34,262ZM82,250L94,250L94,262L82,262ZM106,250L118,250L118,262L106,262ZM154,250L286,250L286,262L154,262ZM10,262L22,262L22,274L10,274ZM34,262L70,262L70,274L34,274ZM82,262L94,262L94,274L82,274ZM118,262L142,262L142,274L118,274ZM166,262L190,262L190,274L166,274ZM202,262L238,262L238,274L202,274ZM10,274L22,274L22,286L10,286ZM34,274L70,274L70,286L34,286ZM82,274L94,274L94,286L82,286ZM106,274L118,274L118,286L106,286ZM130,274L154,274L154,286L130,286ZM166,274L178,274L178,286L166,286ZM202,274L262,274L262,286L202,286ZM298,274L310,274L310,286L298,286ZM10,286L22,286L22,298L10,298ZM82,286L94,286L94,298L82,298ZM106,286L118,286L118,298L106,298ZM130,286L142,286L142,298L130,298ZM166,286L178,286L178,298L166,298ZM190,286L202,286L202,298L190,298ZM250,286L274,286L274,298L250,298ZM298,286L310,286L310,298L298,298ZM10,298L94,298L94,310L10,310ZM106,298L142,298L142,310L106,310ZM178,298L214,298L214,310L178,310ZM226,298L274,298L274,310L226,310ZM286,298L310,298L310,310L286,310Z"/></svg>
