<?xml version="1.0"?>
<svg xmlns="http://www.w3.org/2000/svg" xmlns:xlink="http://www.w3.org/1999/xlink" version="1.1" width="320px" height="320px" viewBox="0 0 320 320"><rect x="0" y="0" width="320" height="320" fill="#ffffff" fill-opacity="1"/><path fill="#000000" fill-opacity="1" d="M10,10L94,10L94,22L10,22ZM106,10L118,10L118,22L106,22ZM154,10L166,10L166,22L154,22ZM190,10L214,10L214,22L190,22ZM226,10L310,10L310,22L226,22ZM10,22L22,22L22,34L10,34ZM82,22L94,22L94,34L82,34ZM118,22L154,22L154,34L118,34ZM166,22L202,22L202,34L166,34ZM226,22L238,22L238,34L226,34ZM298,22L310,22L310,34L298,34ZM10,34L22,34L22,46L10,46ZM34,34L70,34L70,46L34,46ZM82,34L94,34L94,46L82,46ZM106,34L142,34L142,46L106,46ZM166,34L178,34L178,46L166,46ZM190,34L214,34L214,46L190,46ZM226,34L238,34L238,46L226,46ZM250,34L286,34L286,46L250,46ZM298,34L310,34L310,46L298,46ZM10,46L22,46L22,58L10,58ZM34,46L70,46L70,58L34,58ZM82,46L94,46L94,58L82,58ZM106,46L142,46L142,58L106,58ZM154,46L166,46L166,58L154,58ZM190,46L202,46L202,58L190,58ZM226,46L238,46L238,58L226,58ZM250,46L286,46L286,58L250,58ZM298,46L310,46L310,58L298,58ZM10,58L22,58L22,70L10,70ZM34,58L70,58L70,70L34,70ZM82,58L94,58L94,70L82,70ZM106,58L118,58L118,70L106,70ZM142,58L166,58L166,70L142,70ZM178,58L214,58L214,70L178,70ZM226,58L238,58L238,70L226,70ZM250,58L286,58L286,70L250,70ZM298,58L310,58L310,70L298,70ZM10,70L22,70L22,82L10,82ZM82,70L94,70L94,82L82,82ZM130,70L142,70L142,82L130,82ZM166,70L190,70L190,82L166,82ZM226,70L238,70L238,82L226,82ZM298,70L310,70L310,82L298,82ZM10,82L94,82L94,94L10,94ZM106,82L118,82L118,94L106,94ZM130,82L142,82L142,94L130,94ZM154,82L166,82L166,94L154,94ZM178,82L190,82L190,94L178,94ZM202,82L214,82L214,94L202,94ZM226,82L310,82L310,94L226,94ZM130,94L142,94L142,106L130,106ZM154,94L166,94L166,106L154,106ZM190,94L202,94L202,106L190,106ZM10,106L58,106L58,118L10,118ZM82,106L94,106L94,118L82,118ZM106,106L118,106L118,118L106,118ZM130,106L142,106L142,118L130,118ZM166,106L178,106L178,118L166,118ZM214,106L226,106L226,118L214,118ZM250,106L286,106L286,118L250,118ZM298,106L310,106L310,118L298,118ZM10,118L22,118L22,130L10,130ZM34,118L46,118L46,130L34,130ZM58,118L70,118L70,130L58,130ZM94,118L106,118L106,130L94,130ZM130,118L142,118L142,130L130,130ZM190,118L202,118L202,130L190,130ZM214,118L226,118L226,130L214,130ZM238,118L262,118L262,130L238,130ZM34,130L46,130L46,142L34,142ZM58,130L154,130L154,142L58,142ZM166,130L178,130L178,142L166,142ZM202,130L226,130L226,142L202,142ZM274,130L286,130L286,142L274,142ZM10,142L22,142L22,154L10,154ZM118,142L166,142L166,154L118,154ZM190,142L214,142L214,154L190,154ZM226,142L238,142L238,154L226,154ZM262,142L298,142L298,154L262,154ZM10,154L34,154L34,166L10,166ZM46,154L106,154L106,166L46,166ZM118,154L142,154L142,166L118,166ZM154,154L166,154L166,166L154,166ZM178,154L202,154L202,166L178,166ZM226,154L238,154L238,166L226,166ZM286,154L310,154L310,166L286,166ZM22,166L34,166L34,178L22,178ZM46,166L58,166L58,178L46,178ZM94,166L106,166L106,178L94,178ZM142,166L166,166L166,178L142,178ZM178,166L190,166L190,178L178,178ZM214,166L226,166L226,178L214,178ZM238,166L250,166L250,178L238,178ZM262,166L274,166L274,178L262,178ZM298,166L310,166L310,178L298,178ZM22,178L46,178L46,190L22,190ZM70,178L94,178L94,190L70,190ZM118,178L142,178L142,190L118,190ZM178,178L190,178L190,190L178,190ZM202,178L226,178L226,190L202,190ZM238,178L262,178L262,190L238,190ZM298,178L310,178L310,190L298,190ZM10,190L22,190L22,202L10,202ZM58,190L82,190L82,202L58,202ZM130,190L154,190L154,202L130,202ZM226,190L250,190L250,202L226,202ZM262,190L310,190L310,202L262,202ZM34,202L58,202L58,214L34,214ZM70,202L94,202L94,214L70,214ZM106,202L130,202L130,214L106,214ZM142,202L154,202L154,214L142,214ZM178,202L190,202L190,214L178,214ZM202,202L262,202L262,214L202,214ZM286,202L298,202L298,214L286,214ZM106,214L118,214L118,226L106,226ZM130,214L142,214L142,226L130,226ZM166,214L190,214L190,226L166,226ZM202,214L214,214L214,226L202,226ZM250,214L286,214L286,226L250,226ZM10,226L94,226L94,238L10,238ZM118,226L130,226L130,238L118,238ZM154,226L190,226L190,238L154,238ZM202,226L214,226L214,238L202,238ZM226,226L238,226L238,238L226,238ZM250,226L310,226L310,238L250,238ZM10,238L22,238L22,250L10,250ZM82,238L94,238L94,250L82,250ZM178,238L190,238L190,250L178,250ZM202,238L214,238L214,250L202,250ZM250,238L262,238L262,250L250,250ZM274,238L310,238L310,250L274,250ZM10,250L22,250L22,262L10,262ZM34,250L70,250L70,262L34,262ZM82,250L94,250L94,262L82,262ZM190,250L286,250L286,262L190,262ZM298,250L310,250L310,262L298,262ZM10,262L22,262L22,274L10,274ZM34,262L70,262L70,274L34,274ZM82,262L94,262L94,274L82,274ZM106,262L118,262L118,274L106,274ZM142,262L166,262L166,274L142,274ZM178,262L190,262L190,274L178,274ZM202,262L214,262L214,274L202,274ZM238,262L250,262L250,274L238,274ZM286,262L310,262L310,274L286,274ZM10,274L22,274L22,286L10,286ZM34,274L70,274L70,286L34,286ZM82,274L94,274L94,286L82,286ZM106,274L142,274L142,286L106,286ZM154,274L178,274L178,286L154,286ZM238,274L262,274L262,286L238,286ZM274,274L298,274L298,286L274,286ZM10,286L22,286L22,298L10,298ZM82,286L94,286L94,298L82,298ZM106,286L130,286L130,298L106,298ZM142,286L154,286L154,298L142,298ZM166,286L178,286L178,298L166,298ZM202,286L226,286L226,298L202,298ZM250,286L262,286L262,298L250,298ZM274,286L310,286L310,298L274,298ZM10,298L94,298L94,310L10,310ZM106,298L142,298L142,310L106,310ZM226,298L250,298L250,310L226,310ZM274,298L310,298L310,310L274,310Z"/></svg>
