<?xml version="1.0"?>
<svg xmlns="http://www.w3.org/2000/svg" xmlns:xlink="http://www.w3.org/1999/xlink" version="1.1" width="320px" height="320px" viewBox="0 0 320 320"><rect x="0" y="0" width="320" height="320" fill="#ffffff" fill-opacity="1"/><path fill="#000000" fill-opacity="1" d="M15,15L85,15L85,25L15,25ZM105,15L115,15L115,25L105,25ZM165,15L185,15L185,25L165,25ZM235,15L305,15L305,25L235,25ZM15,25L25,25L25,35L15,35ZM75,25L85,25L85,35L75,35ZM95,25L115,25L115,35L95,35ZM125,25L145,25L145,35L125,35ZM185,25L205,25L205,35L185,35ZM235,25L245,25L245,35L235,35ZM295,25L305,25L305,35L295,35ZM15,35L25,35L25,45L15,45ZM35,35L65,35L65,45L35,45ZM75,35L85,35L85,45L75,45ZM105,35L135,35L135,45L105,45ZM155,35L165,35L165,45L155,45ZM175,35L195,35L195,45L175,45ZM205,35L225,35L225,45L205,45ZM235,35L245,35L245,45L235,45ZM255,35L285,35L285,45L255,45ZM295,35L305,35L305,45L295,45ZM15,45L25,45L25,55L15,55ZM35,45L65,45L65,55L35,55ZM75,45L85,45L85,55L75,55ZM95,45L115,45L115,55L95,55ZM125,45L135,45L135,55L125,55ZM175,45L205,45L205,55L175,55ZM215,45L225,45L225,55L215,55ZM235,45L245,45L245,55L235,55ZM255,45L285,45L285,55L255,55ZM295,45L305,45L305,55L295,55ZM15,55L25,55L25,65L15,65ZM35,55L65,55L65,65L35,65ZM75,55L85,55L85,65L75,65ZM115,55L125,55L125,65L115,65ZM135,55L175,55L175,65L135,65ZM195,55L215,55L215,65L195,65ZM235,55L245,55L245,65L235,65ZM255,55L285,55L285,65L255,65ZM295,55L305,55L305,65L295,65ZM15,65L25,65L25,75L15,75ZM75,65L85,65L85,75L75,75ZM95,65L105,65L105,75L95,75ZM115,65L125,65L125,75L115,75ZM145,65L205,65L205,75L145,75ZM235,65L245,65L245,75L235,75ZM295,65L305,65L305,75L295,75ZM15,75L85,75L85,85L15,85ZM95,75L105,75L105,85L95,85ZM115,75L125,75L125,85L115,85ZM135,75L145,75L145,85L135,85ZM155,75L165,75L165,85L155,85ZM175,75L185,75L185,85L175,85ZM195,75L205,75L205,85L195,85ZM215,75L225,75L225,85L215,85ZM235,75L305,75L305,85L235,85ZM135,85L155,85L155,95L135,95ZM165,85L175,85L175,95L165,95ZM195,85L225,85L225,95L195,95ZM15,95L65,95L65,105L15,105ZM75,95L125,95L125,105L75,105ZM135,95L145,95L145,105L135,105ZM155,95L175,95L175,105L155,105ZM195,95L205,95L205,105L195,105ZM215,95L235,95L235,105L215,105ZM245,95L255,95L255,105L245,105ZM265,95L275,95L275,105L265,105ZM285,95L295,95L295,105L285,105ZM15,105L45,105L45,115L15,115ZM65,105L75,105L75,115L65,115ZM105,105L115,105L115,115L105,115ZM165,105L185,105L185,115L165,115ZM195,105L205,105L205,115L195,115ZM225,105L235,105L235,115L225,115ZM245,105L275,105L275,115L245,115ZM25,115L35,115L35,125L25,125ZM45,115L55,115L55,125L45,125ZM65,115L85,115L85,125L65,125ZM95,115L115,115L115,125L95,125ZM125,115L145,115L145,125L125,125ZM185,115L205,115L205,125L185,125ZM225,115L235,115L235,125L225,125ZM255,115L265,115L265,125L255,125ZM275,115L285,115L285,125L275,125ZM15,125L35,125L35,135L15,135ZM45,125L75,125L75,135L45,135ZM85,125L95,125L95,135L85,135ZM105,125L135,125L135,135L105,135ZM155,125L165,125L165,135L155,135ZM175,125L185,125L185,135L175,135ZM205,125L225,125L225,135L205,135ZM235,125L265,125L265,135L235,135ZM275,125L305,125L305,135L275,135ZM35,135L45,135L45,145L35,145ZM65,135L85,135L85,145L65,145ZM105,135L115,135L115,145L105,145ZM125,135L135,135L135,145L125,145ZM195,135L205,135L205,145L195,145ZM225,135L265,135L265,145L225,145ZM45,145L75,145L75,155L45,155ZM85,145L95,145L95,155L85,155ZM105,145L125,145L125,155L105,155ZM135,145L175,145L175,155L135,155ZM215,145L245,145L245,155L215,155ZM265,145L275,145L275,155L265,155ZM285,145L305,145L305,155L285,155ZM15,155L25,155L25,165L15,165ZM35,155L55,155L55,165L35,165ZM65,155L85,155L85,165L65,165ZM95,155L125,155L125,165L95,165ZM145,155L175,155L175,165L145,165ZM185,155L215,155L215,165L185,165ZM225,155L235,155L235,165L225,165ZM255,155L265,155L265,165L255,165ZM275,155L285,155L285,165L275,165ZM35,165L75,165L75,175L35,175ZM85,165L95,165L95,175L85,175ZM105,165L125,165L125,175L105,175ZM135,165L155,165L155,175L135,175ZM165,165L175,165L175,175L165,175ZM205,165L265,165L265,175L205,175ZM275,165L285,165L285,175L275,175ZM25,175L35,175L35,185L25,185ZM55,175L65,175L65,185L55,185ZM75,175L85,175L85,185L75,185ZM95,175L125,175L125,185L95,185ZM135,175L145,175L145,185L135,185ZM155,175L205,175L205,185L155,185ZM225,175L235,175L235,185L225,185ZM255,175L275,175L275,185L255,185ZM15,185L25,185L25,195L15,195ZM35,185L65,185L65,195L35,195ZM85,185L95,185L95,195L85,195ZM105,185L115,185L115,195L105,195ZM165,185L175,185L175,195L165,195ZM195,185L205,185L205,195L195,195ZM225,185L235,185L235,195L225,195ZM255,185L275,185L275,195L255,195ZM295,185L305,185L305,195L295,195ZM15,195L25,195L25,205L15,205ZM45,195L95,195L95,205L45,205ZM105,195L145,195L145,205L105,205ZM165,195L205,195L205,205L165,205ZM215,195L235,195L235,205L215,205ZM275,195L285,195L285,205L275,205ZM295,195L305,195L305,205L295,205ZM15,205L25,205L25,215L15,215ZM65,205L75,205L75,215L65,215ZM85,205L95,205L95,215L85,215ZM105,205L135,205L135,215L105,215ZM155,205L185,205L185,215L155,215ZM215,205L225,205L225,215L215,215ZM235,205L245,205L245,215L235,215ZM255,205L265,205L265,215L255,215ZM15,215L25,215L25,225L15,225ZM55,215L85,215L85,225L55,225ZM95,215L105,215L105,225L95,225ZM125,215L135,215L135,225L125,225ZM165,215L205,215L205,225L165,225ZM215,215L295,215L295,225L215,225ZM95,225L105,225L105,235L95,235ZM115,225L125,225L125,235L115,235ZM135,225L185,225L185,235L135,235ZM215,225L225,225L225,235L215,235ZM255,225L275,225L275,235L255,235ZM285,225L295,225L295,235L285,235ZM15,235L85,235L85,245L15,245ZM95,235L115,235L115,245L95,245ZM145,235L165,235L165,245L145,245ZM185,235L205,235L205,245L185,245ZM215,235L225,235L225,245L215,245ZM235,235L245,235L245,245L235,245ZM255,235L285,235L285,245L255,245ZM15,245L25,245L25,255L15,255ZM75,245L85,245L85,255L75,255ZM105,245L115,245L115,255L105,255ZM135,245L155,245L155,255L135,255ZM215,245L225,245L225,255L215,255ZM255,245L275,245L275,255L255,255ZM285,245L305,245L305,255L285,255ZM15,255L25,255L25,265L15,265ZM35,255L65,255L65,265L35,265ZM75,255L85,255L85,265L75,265ZM95,255L125,255L125,265L95,265ZM135,255L145,255L145,265L135,265ZM155,255L175,255L175,265L155,265ZM215,255L275,255L275,265L215,265ZM285,255L305,255L305,265L285,265ZM15,265L25,265L25,275L15,275ZM35,265L65,265L65,275L35,275ZM75,265L85,265L85,275L75,275ZM95,265L115,265L115,275L95,275ZM175,265L185,265L185,275L175,275ZM195,265L205,265L205,275L195,275ZM215,265L235,265L235,275L215,275ZM245,265L255,265L255,275L245,275ZM265,265L275,265L275,275L265,275ZM15,275L25,275L25,285L15,285ZM35,275L65,275L65,285L35,285ZM75,275L85,275L85,285L75,285ZM95,275L115,275L115,285L95,285ZM125,275L145,275L145,285L125,285ZM165,275L205,275L205,285L165,285ZM245,275L255,275L255,285L245,285ZM275,275L295,275L295,285L275,285ZM15,285L25,285L25,295L15,295ZM75,285L85,285L85,295L75,295ZM95,285L135,285L135,295L95,295ZM155,285L165,285L165,295L155,295ZM225,285L235,285L235,295L225,295ZM265,285L285,285L285,295L265,295ZM295,285L305,285L305,295L295,295ZM15,295L85,295L85,305L15,305ZM95,295L105,295L105,305L95,305ZM125,295L135,295L135,305L125,305ZM165,295L185,295L185,305L165,305ZM205,295L265,295L265,305L205,305Z"/></svg>
