<?xml version="1.0"?>
<svg xmlns="http://www.w3.org/2000/svg" xmlns:xlink="http://www.w3.org/1999/xlink" version="1.1" width="320px" height="320px" viewBox="0 0 320 320"><rect x="0" y="0" width="320" height="320" fill="#ffffff" fill-opacity="1"/><path fill="#000000" fill-opacity="1" d="M15,15L85,15L85,25L15,25ZM115,15L125,15L125,25L115,25ZM135,15L155,15L155,25L135,25ZM165,15L175,15L175,25L165,25ZM205,15L215,15L215,25L205,25ZM235,15L305,15L305,25L235,25ZM15,25L25,25L25,35L15,35ZM75,25L85,25L85,35L75,35ZM95,25L105,25L105,35L95,35ZM115,25L125,25L125,35L115,35ZM145,25L175,25L175,35L145,35ZM185,25L195,25L195,35L185,35ZM235,25L245,25L245,35L235,35ZM295,25L305,25L305,35L295,35ZM15,35L25,35L25,45L15,45ZM35,35L65,35L65,45L35,45ZM75,35L85,35L85,45L75,45ZM135,35L155,35L155,45L135,45ZM165,35L175,35L175,45L165,45ZM195,35L225,35L225,45L195,45ZM235,35L245,35L245,45L235,45ZM255,35L285,35L285,45L255,45ZM295,35L305,35L305,45L295,45ZM15,45L25,45L25,55L15,55ZM35,45L65,45L65,55L35,55ZM75,45L85,45L85,55L75,55ZM95,45L125,45L125,55L95,55ZM135,45L145,45L145,55L135,55ZM155,45L185,45L185,55L155,55ZM195,45L205,45L205,55L195,55ZM215,45L225,45L225,55L215,55ZM235,45L245,45L245,55L235,55ZM255,45L285,45L285,55L255,55ZM295,45L305,45L305,55L295,55ZM15,55L25,55L25,65L15,65ZM35,55L65,55L65,65L35,65ZM75,55L85,55L85,65L75,65ZM105,55L115,55L115,65L105,65ZM235,55L245,55L245,65L235,65ZM255,55L285,55L285,65L255,65ZM295,55L305,55L305,65L295,65ZM15,65L25,65L25,75L15,75ZM75,65L85,65L85,75L75,75ZM95,65L115,65L115,75L95,75ZM125,65L145,65L145,75L125,75ZM165,65L205,65L205,75L165,75ZM235,65L245,65L245,75L235,75ZM295,65L305,65L305,75L295,75ZM15,75L85,75L85,85L15,85ZM95,75L105,75L105,85L95,85ZM115,75L125,75L125,85L115,85ZM135,75L145,75L145,85L135,85ZM155,75L165,75L165,85L155,85ZM175,75L185,75L185,85L175,85ZM195,75L205,75L205,85L195,85ZM215,75L225,75L225,85L215,85ZM235,75L305,75L305,85L235,85ZM105,85L135,85L135,95L105,95ZM155,85L165,85L165,95L155,95ZM175,85L195,85L195,95L175,95ZM205,85L225,85L225,95L205,95ZM15,95L65,95L65,105L15,105ZM75,95L115,95L115,105L75,105ZM125,95L135,95L135,105L125,105ZM165,95L205,95L205,105L165,105ZM225,95L235,95L235,105L225,105ZM245,95L255,95L255,105L245,105ZM265,95L275,95L275,105L265,105ZM285,95L295,95L295,105L285,105ZM15,105L35,105L35,115L15,115ZM45,105L55,105L55,115L45,115ZM85,105L95,105L95,115L85,115ZM115,105L125,105L125,115L115,115ZM135,105L175,105L175,115L135,115ZM195,105L205,105L205,115L195,115ZM215,105L235,105L235,115L215,115ZM245,105L275,105L275,115L245,115ZM25,115L35,115L35,125L25,125ZM45,115L95,115L95,125L45,125ZM115,115L125,115L125,125L115,125ZM145,115L175,115L175,125L145,125ZM185,115L215,115L215,125L185,125ZM225,115L235,115L235,125L225,125ZM255,115L265,115L265,125L255,125ZM275,115L285,115L285,125L275,125ZM15,125L35,125L35,135L15,135ZM55,125L65,125L65,135L55,135ZM85,125L95,125L95,135L85,135ZM135,125L155,125L155,135L135,135ZM175,125L185,125L185,135L175,135ZM195,125L225,125L225,135L195,135ZM235,125L265,125L265,135L235,135ZM275,125L305,125L305,135L275,135ZM35,135L125,135L125,145L35,145ZM135,135L145,135L145,145L135,145ZM155,135L175,135L175,145L155,145ZM195,135L205,135L205,145L195,145ZM225,135L265,135L265,145L225,145ZM15,145L25,145L25,155L15,155ZM65,145L75,145L75,155L65,155ZM105,145L115,145L115,155L105,155ZM165,145L185,145L185,155L165,155ZM195,145L205,145L205,155L195,155ZM225,145L245,145L245,155L225,155ZM265,145L275,145L275,155L265,155ZM285,145L305,145L305,155L285,155ZM15,155L55,155L55,165L15,165ZM65,155L115,155L115,165L65,165ZM125,155L145,155L145,165L125,165ZM165,155L175,155L175,165L165,165ZM185,155L195,155L195,165L185,165ZM215,155L235,155L235,165L215,165ZM255,155L265,155L265,165L255,165ZM275,155L285,155L285,165L275,165ZM15,165L25,165L25,175L15,175ZM35,165L45,165L45,175L35,175ZM55,165L75,165L75,175L55,175ZM95,165L135,165L135,175L95,175ZM155,165L165,165L165,175L155,175ZM175,165L185,165L185,175L175,175ZM215,165L265,165L265,175L215,175ZM275,165L285,165L285,175L275,175ZM25,175L35,175L35,185L25,185ZM55,175L65,175L65,185L55,185ZM75,175L135,175L135,185L75,185ZM165,175L205,175L205,185L165,185ZM225,175L235,175L235,185L225,185ZM255,175L275,175L275,185L255,185ZM15,185L45,185L45,195L15,195ZM55,185L75,185L75,195L55,195ZM115,185L125,185L125,195L115,195ZM135,185L165,185L165,195L135,195ZM225,185L235,185L235,195L225,195ZM255,185L275,185L275,195L255,195ZM285,185L305,185L305,195L285,195ZM15,195L25,195L25,205L15,205ZM35,195L85,195L85,205L35,205ZM105,195L115,195L115,205L105,205ZM145,195L195,195L195,205L145,205ZM225,195L235,195L235,205L225,205ZM275,195L295,195L295,205L275,205ZM15,205L25,205L25,215L15,215ZM35,205L65,205L65,215L35,215ZM85,205L95,205L95,215L85,215ZM105,205L115,205L115,215L105,215ZM135,205L155,205L155,215L135,215ZM175,205L185,205L185,215L175,215ZM195,205L215,205L215,215L195,215ZM235,205L245,205L245,215L235,215ZM255,205L265,205L265,215L255,215ZM285,205L305,205L305,215L285,215ZM15,215L25,215L25,225L15,225ZM35,215L45,215L45,225L35,225ZM55,215L65,215L65,225L55,225ZM75,215L95,215L95,225L75,225ZM135,215L145,215L145,225L135,225ZM155,215L185,215L185,225L155,225ZM215,215L295,215L295,225L215,225ZM95,225L125,225L125,235L95,235ZM165,225L175,225L175,235L165,235ZM195,225L205,225L205,235L195,235ZM215,225L225,225L225,235L215,235ZM255,225L275,225L275,235L255,235ZM285,225L295,225L295,235L285,235ZM15,235L85,235L85,245L15,245ZM95,235L145,235L145,245L95,245ZM165,235L175,235L175,245L165,245ZM185,235L195,235L195,245L185,245ZM215,235L225,235L225,245L215,245ZM235,235L245,235L245,245L235,245ZM255,235L285,235L285,245L255,245ZM15,245L25,245L25,255L15,255ZM75,245L85,245L85,255L75,255ZM125,245L135,245L135,255L125,255ZM155,245L165,245L165,255L155,255ZM175,245L185,245L185,255L175,255ZM195,245L225,245L225,255L195,255ZM255,245L275,245L275,255L255,255ZM285,245L305,245L305,255L285,255ZM15,255L25,255L25,265L15,265ZM35,255L65,255L65,265L35,265ZM75,255L85,255L85,265L75,265ZM95,255L105,255L105,265L95,265ZM115,255L135,255L135,265L115,265ZM165,255L175,255L175,265L165,265ZM195,255L275,255L275,265L195,265ZM285,255L305,255L305,265L285,265ZM15,265L25,265L25,275L15,275ZM35,265L65,265L65,275L35,275ZM75,265L85,265L85,275L75,275ZM95,265L105,265L105,275L95,275ZM135,265L185,265L185,275L135,275ZM215,265L235,265L235,275L215,275ZM245,265L255,265L255,275L245,275ZM265,265L275,265L275,275L265,275ZM15,275L25,275L25,285L15,285ZM35,275L65,275L65,285L35,285ZM75,275L85,275L85,285L75,285ZM95,275L105,275L105,285L95,285ZM145,275L175,275L175,285L145,285ZM185,275L195,275L195,285L185,285ZM245,275L255,275L255,285L245,285ZM275,275L295,275L295,285L275,285ZM15,285L25,285L25,295L15,295ZM75,285L85,285L85,295L75,295ZM95,285L115,285L115,295L95,295ZM135,285L155,285L155,295L135,295ZM175,285L185,285L185,295L175,295ZM215,285L235,285L235,295L215,295ZM265,285L285,285L285,295L265,295ZM295,285L305,285L305,295L295,295ZM15,295L85,295L85,305L15,305ZM95,295L105,295L105,305L95,305ZM115,295L125,295L125,305L115,305ZM135,295L145,295L145,305L135,305ZM155,295L205,295L205,305L155,305ZM235,295L265,295L265,305L235,305Z"/></svg>
