<?xml version="1.0"?>
<svg xmlns="http://www.w3.org/2000/svg" xmlns:xlink="http://www.w3.org/1999/xlink" version="1.1" width="320px" height="320px" viewBox="0 0 320 320"><rect x="0" y="0" width="320" height="320" fill="#ffffff" fill-opacity="1"/><path fill="#000000" fill-opacity="1" d="M10,10L94,10L94,22L10,22ZM106,10L130,10L130,22L106,22ZM142,10L202,10L202,22L142,22ZM226,10L310,10L310,22L226,22ZM10,22L22,22L22,34L10,34ZM82,22L94,22L94,34L82,34ZM106,22L142,22L142,34L106,34ZM166,22L178,22L178,34L166,34ZM190,22L202,22L202,34L190,34ZM226,22L238,22L238,34L226,34ZM298,22L310,22L310,34L298,34ZM10,34L22,34L22,46L10,46ZM34,34L70,34L70,46L34,46ZM82,34L94,34L94,46L82,46ZM118,34L130,34L130,46L118,46ZM166,34L190,34L190,46L166,46ZM202,34L214,34L214,46L202,46ZM226,34L238,34L238,46L226,46ZM250,34L286,34L286,46L250,46ZM298,34L310,34L310,46L298,46ZM10,46L22,46L22,58L10,58ZM34,46L70,46L70,58L34,58ZM82,46L94,46L94,58L82,58ZM118,46L130,46L130,58L118,58ZM202,46L214,46L214,58L202,58ZM226,46L238,46L238,58L226,58ZM250,46L286,46L286,58L250,58ZM298,46L310,46L310,58L298,58ZM10,58L22,58L22,70L10,70ZM34,58L70,58L70,70L34,70ZM82,58L94,58L94,70L82,70ZM106,58L130,58L130,70L106,70ZM142,58L154,58L154,70L142,70ZM166,58L214,58L214,70L166,70ZM226,58L238,58L238,70L226,70ZM250,58L286,58L286,70L250,70ZM298,58L310,58L310,70L298,70ZM10,70L22,70L22,82L10,82ZM82,70L94,70L94,82L82,82ZM106,70L142,70L142,82L106,82ZM178,70L190,70L190,82L178,82ZM202,70L214,70L214,82L202,82ZM226,70L238,70L238,82L226,82ZM298,70L310,70L310,82L298,82ZM10,82L94,82L94,94L10,94ZM106,82L118,82L118,94L106,94ZM130,82L142,82L142,94L130,94ZM154,82L166,82L166,94L154,94ZM178,82L190,82L190,94L178,94ZM202,82L214,82L214,94L202,94ZM226,82L310,82L310,94L226,94ZM106,94L118,94L118,106L106,106ZM142,94L166,94L166,106L142,106ZM178,94L202,94L202,106L178,106ZM10,106L46,106L46,118L10,118ZM70,106L94,106L94,118L70,118ZM106,106L130,106L130,118L106,118ZM142,106L154,106L154,118L142,118ZM166,106L202,106L202,118L166,118ZM214,106L262,106L262,118L214,118ZM286,106L310,106L310,118L286,118ZM10,118L22,118L22,130L10,130ZM34,118L58,118L58,130L34,130ZM106,118L118,118L118,130L106,130ZM214,118L274,118L274,130L214,130ZM298,118L310,118L310,130L298,130ZM10,130L22,130L22,142L10,142ZM58,130L106,130L106,142L58,142ZM118,130L166,130L166,142L118,142ZM190,130L202,130L202,142L190,142ZM214,130L250,130L250,142L214,142ZM262,130L274,130L274,142L262,142ZM298,130L310,130L310,142L298,142ZM10,142L22,142L22,154L10,154ZM46,142L70,142L70,154L46,154ZM106,142L118,142L118,154L106,154ZM142,142L178,142L178,154L142,154ZM190,142L202,142L202,154L190,154ZM226,142L250,142L250,154L226,154ZM262,142L274,142L274,154L262,154ZM286,142L298,142L298,154L286,154ZM10,154L34,154L34,166L10,166ZM70,154L94,154L94,166L70,166ZM106,154L154,154L154,166L106,166ZM166,154L178,154L178,166L166,166ZM190,154L262,154L262,166L190,166ZM274,154L286,154L286,166L274,166ZM298,154L310,154L310,166L298,166ZM46,166L58,166L58,178L46,178ZM70,166L82,166L82,178L70,178ZM94,166L106,166L106,178L94,178ZM118,166L130,166L130,178L118,178ZM142,166L154,166L154,178L142,178ZM238,166L274,166L274,178L238,178ZM298,166L310,166L310,178L298,178ZM10,178L46,178L46,190L10,190ZM70,178L118,178L118,190L70,190ZM130,178L154,178L154,190L130,190ZM190,178L214,178L214,190L190,190ZM226,178L250,178L250,190L226,190ZM262,178L274,178L274,190L262,190ZM34,190L46,190L46,202L34,202ZM58,190L82,190L82,202L58,202ZM94,190L106,190L106,202L94,202ZM118,190L130,190L130,202L118,202ZM142,190L166,190L166,202L142,202ZM190,190L202,190L202,202L190,202ZM238,190L250,190L250,202L238,202ZM274,190L298,190L298,202L274,202ZM10,202L58,202L58,214L10,214ZM70,202L106,202L106,214L70,214ZM118,202L310,202L310,214L118,214ZM106,214L118,214L118,226L106,226ZM130,214L142,214L142,226L130,226ZM178,214L190,214L190,226L178,226ZM202,214L214,214L214,226L202,226ZM250,214L274,214L274,226L250,226ZM10,226L94,226L94,238L10,238ZM118,226L166,226L166,238L118,238ZM202,226L214,226L214,238L202,238ZM226,226L238,226L238,238L226,238ZM250,226L274,226L274,238L250,238ZM298,226L310,226L310,238L298,238ZM10,238L22,238L22,250L10,250ZM82,238L94,238L94,250L82,250ZM106,238L130,238L130,250L106,250ZM142,238L154,238L154,250L142,250ZM202,238L214,238L214,250L202,250ZM250,238L262,238L262,250L250,250ZM274,238L286,238L286,250L274,250ZM298,238L310,238L310,250L298,250ZM10,250L22,250L22,262L10,262ZM34,250L70,250L70,262L34,262ZM82,250L94,250L94,262L82,262ZM118,250L130,250L130,262L118,262ZM142,250L166,250L166,262L142,262ZM178,250L190,250L190,262L178,262ZM202,250L262,250L262,262L202,262ZM274,250L298,250L298,262L274,262ZM10,262L22,262L22,274L10,274ZM34,262L70,262L70,274L34,274ZM82,262L94,262L94,274L82,274ZM118,262L130,262L130,274L118,274ZM142,262L154,262L154,274L142,274ZM178,262L214,262L214,274L178,274ZM226,262L250,262L250,274L226,274ZM262,262L274,262L274,274L262,274ZM286,262L298,262L298,274L286,274ZM10,274L22,274L22,286L10,286ZM34,274L70,274L70,286L34,286ZM82,274L94,274L94,286L82,286ZM106,274L130,274L130,286L106,286ZM190,274L214,274L214,286L190,286ZM226,274L238,274L238,286L226,286ZM250,274L274,274L274,286L250,286ZM286,274L310,274L310,286L286,286ZM10,286L22,286L22,298L10,298ZM82,286L94,286L94,298L82,298ZM106,286L118,286L118,298L106,298ZM130,286L154,286L154,298L130,298ZM214,286L226,286L226,298L214,298ZM238,286L262,286L262,298L238,298ZM286,286L310,286L310,298L286,298ZM10,298L94,298L94,310L10,310ZM106,298L118,298L118,310L106,310ZM130,298L154,298L154,310L130,310ZM166,298L190,298L190,310L166,310ZM202,298L238,298L238,310L202,310ZM250,298L262,298L262,310L250,310ZM298,298L310,298L310,310L298,310Z"/></svg>
