<?xml version="1.0"?>
<svg xmlns="http://www.w3.org/2000/svg" xmlns:xlink="http://www.w3.org/1999/xlink" version="1.1" width="320px" height="320px" viewBox="0 0 320 320"><rect x="0" y="0" width="320" height="320" fill="#ffffff" fill-opacity="1"/><path fill="#000000" fill-opacity="1" d="M15,15L85,15L85,25L15,25ZM105,15L115,15L115,25L105,25ZM135,15L145,15L145,25L135,25ZM155,15L175,15L175,25L155,25ZM215,15L225,15L225,25L215,25ZM235,15L305,15L305,25L235,25ZM15,25L25,25L25,35L15,35ZM75,25L85,25L85,35L75,35ZM95,25L105,25L105,35L95,35ZM125,25L155,25L155,35L125,35ZM165,25L185,25L185,35L165,35ZM235,25L245,25L245,35L235,35ZM295,25L305,25L305,35L295,35ZM15,35L25,35L25,45L15,45ZM35,35L65,35L65,45L35,45ZM75,35L85,35L85,45L75,45ZM95,35L145,35L145,45L95,45ZM155,35L175,35L175,45L155,45ZM205,35L225,35L225,45L205,45ZM235,35L245,35L245,45L235,45ZM255,35L285,35L285,45L255,45ZM295,35L305,35L305,45L295,45ZM15,45L25,45L25,55L15,55ZM35,45L65,45L65,55L35,55ZM75,45L85,45L85,55L75,55ZM105,45L135,45L135,55L105,55ZM145,45L185,45L185,55L145,55ZM205,45L225,45L225,55L205,55ZM235,45L245,45L245,55L235,55ZM255,45L285,45L285,55L255,55ZM295,45L305,45L305,55L295,55ZM15,55L25,55L25,65L15,65ZM35,55L65,55L65,65L35,65ZM75,55L85,55L85,65L75,65ZM95,55L105,55L105,65L95,65ZM145,55L155,55L155,65L145,65ZM165,55L175,55L175,65L165,65ZM195,55L205,55L205,65L195,65ZM215,55L225,55L225,65L215,65ZM235,55L245,55L245,65L235,65ZM255,55L285,55L285,65L255,65ZM295,55L305,55L305,65L295,65ZM15,65L25,65L25,75L15,75ZM75,65L85,65L85,75L75,75ZM95,65L115,65L115,75L95,75ZM125,65L135,65L135,75L125,75ZM155,65L195,65L195,75L155,75ZM205,65L225,65L225,75L205,75ZM235,65L245,65L245,75L235,75ZM295,65L305,65L305,75L295,75ZM15,75L85,75L85,85L15,85ZM95,75L105,75L105,85L95,85ZM115,75L125,75L125,85L115,85ZM135,75L145,75L145,85L135,85ZM155,75L165,75L165,85L155,85ZM175,75L185,75L185,85L175,85ZM195,75L205,75L205,85L195,85ZM215,75L225,75L225,85L215,85ZM235,75L305,75L305,85L235,85ZM95,85L115,85L115,95L95,95ZM135,85L155,85L155,95L135,95ZM185,85L195,85L195,95L185,95ZM205,85L225,85L225,95L205,95ZM15,95L35,95L35,105L15,105ZM45,95L55,95L55,105L45,105ZM75,95L95,95L95,105L75,105ZM115,95L125,95L125,105L115,105ZM155,95L165,95L165,105L155,105ZM175,95L205,95L205,105L175,105ZM215,95L225,95L225,105L215,105ZM235,95L265,95L265,105L235,105ZM275,95L295,95L295,105L275,105ZM35,105L45,105L45,115L35,115ZM85,105L95,105L95,115L85,115ZM115,105L135,105L135,115L115,115ZM145,105L195,105L195,115L145,115ZM205,105L215,105L215,115L205,115ZM225,105L235,105L235,115L225,115ZM55,115L85,115L85,125L55,125ZM95,115L125,115L125,125L95,125ZM155,115L165,115L165,125L155,125ZM185,115L195,115L195,125L185,125ZM205,115L225,115L225,125L205,125ZM255,115L275,115L275,125L255,125ZM285,115L295,115L295,125L285,125ZM25,125L35,125L35,135L25,135ZM65,125L75,125L75,135L65,135ZM85,125L105,125L105,135L85,135ZM145,125L155,125L155,135L145,135ZM175,125L185,125L185,135L175,135ZM195,125L205,125L205,135L195,135ZM235,125L255,125L255,135L235,135ZM265,125L275,125L275,135L265,135ZM285,125L305,125L305,135L285,135ZM15,135L25,135L25,145L15,145ZM35,135L55,135L55,145L35,145ZM65,135L85,135L85,145L65,145ZM95,135L105,135L105,145L95,145ZM135,135L145,135L145,145L135,145ZM175,135L205,135L205,145L175,145ZM215,135L225,135L225,145L215,145ZM245,135L265,135L265,145L245,145ZM275,135L305,135L305,145L275,145ZM15,145L35,145L35,155L15,155ZM55,145L65,145L65,155L55,155ZM85,145L105,145L105,155L85,155ZM115,145L145,145L145,155L115,155ZM155,145L165,145L165,155L155,155ZM185,145L205,145L205,155L185,155ZM215,145L235,145L235,155L215,155ZM245,145L275,145L275,155L245,155ZM285,145L295,145L295,155L285,155ZM25,155L55,155L55,165L25,165ZM65,155L105,155L105,165L65,165ZM135,155L155,155L155,165L135,165ZM175,155L185,155L185,165L175,165ZM205,155L215,155L215,165L205,165ZM235,155L265,155L265,165L235,165ZM275,155L305,155L305,165L275,165ZM65,165L75,165L75,175L65,175ZM95,165L115,165L115,175L95,175ZM135,165L165,165L165,175L135,175ZM175,165L195,165L195,175L175,175ZM215,165L245,165L245,175L215,175ZM265,165L285,165L285,175L265,175ZM15,175L25,175L25,185L15,185ZM45,175L85,175L85,185L45,185ZM115,175L145,175L145,185L115,185ZM205,175L225,175L225,185L205,185ZM255,175L265,175L265,185L255,185ZM275,175L295,175L295,185L275,185ZM25,185L55,185L55,195L25,195ZM85,185L115,185L115,195L85,195ZM145,185L185,185L185,195L145,195ZM205,185L235,185L235,195L205,195ZM275,185L295,185L295,195L275,195ZM15,195L25,195L25,205L15,205ZM35,195L45,195L45,205L35,205ZM65,195L95,195L95,205L65,205ZM115,195L125,195L125,205L115,205ZM135,195L165,195L165,205L135,205ZM175,195L195,195L195,205L175,205ZM235,195L245,195L245,205L235,205ZM285,195L295,195L295,205L285,205ZM35,205L55,205L55,215L35,215ZM95,205L105,205L105,215L95,215ZM125,205L135,205L135,215L125,215ZM155,205L165,205L165,215L155,215ZM185,205L195,205L195,215L185,215ZM215,205L225,205L225,215L215,215ZM245,205L255,205L255,215L245,215ZM285,205L295,205L295,215L285,215ZM15,215L25,215L25,225L15,225ZM75,215L105,215L105,225L75,225ZM125,215L135,215L135,225L125,225ZM155,215L165,215L165,225L155,225ZM185,215L205,215L205,225L185,225ZM215,215L285,215L285,225L215,225ZM295,215L305,215L305,225L295,225ZM95,225L115,225L115,235L95,235ZM135,225L165,225L165,235L135,235ZM185,225L225,225L225,235L185,235ZM255,225L265,225L265,235L255,235ZM285,225L295,225L295,235L285,235ZM15,235L85,235L85,245L15,245ZM95,235L145,235L145,245L95,245ZM155,235L165,235L165,245L155,245ZM175,235L195,235L195,245L175,245ZM205,235L225,235L225,245L205,245ZM235,235L245,235L245,245L235,245ZM255,235L265,235L265,245L255,245ZM285,235L295,235L295,245L285,245ZM15,245L25,245L25,255L15,255ZM75,245L85,245L85,255L75,255ZM105,245L135,245L135,255L105,255ZM145,245L155,245L155,255L145,255ZM175,245L185,245L185,255L175,255ZM195,245L225,245L225,255L195,255ZM255,245L265,245L265,255L255,255ZM275,245L305,245L305,255L275,255ZM15,255L25,255L25,265L15,265ZM35,255L65,255L65,265L35,265ZM75,255L85,255L85,265L75,265ZM175,255L205,255L205,265L175,265ZM215,255L285,255L285,265L215,265ZM15,265L25,265L25,275L15,275ZM35,265L65,265L65,275L35,275ZM75,265L85,265L85,275L75,275ZM95,265L145,265L145,275L95,275ZM185,265L205,265L205,275L185,275ZM215,265L225,265L225,275L215,275ZM235,265L245,265L245,275L235,275ZM255,265L275,265L275,275L255,275ZM295,265L305,265L305,275L295,275ZM15,275L25,275L25,285L15,285ZM35,275L65,275L65,285L35,285ZM75,275L85,275L85,285L75,285ZM115,275L135,275L135,285L115,285ZM145,275L155,275L155,285L145,285ZM175,275L185,275L185,285L175,285ZM235,275L245,275L245,285L235,285ZM275,275L285,275L285,285L275,285ZM295,275L305,275L305,285L295,285ZM15,285L25,285L25,295L15,295ZM75,285L85,285L85,295L75,295ZM95,285L105,285L105,295L95,295ZM115,285L125,285L125,295L115,295ZM145,285L165,285L165,295L145,295ZM175,285L195,285L195,295L175,295ZM205,285L215,285L215,295L205,295ZM225,285L235,285L235,295L225,295ZM245,285L265,285L265,295L245,295ZM275,285L285,285L285,295L275,295ZM295,285L305,285L305,295L295,295ZM15,295L85,295L85,305L15,305ZM95,295L105,295L105,305L95,305ZM115,295L125,295L125,305L115,305ZM135,295L155,295L155,305L135,305ZM235,295L295,295L295,305L235,305Z"/></svg>
